<svg width="179" height="41" viewBox="0 0 179 41" fill="none" xmlns="http://www.w3.org/2000/svg">
<path d="M15.4858 33.9056C10.6086 28.3987 4.24247 19.7722 4.24247 15.4858C4.24247 9.2856 9.2856 4.24247 15.4858 4.24247C20.9097 4.24247 25.45 8.10415 26.4996 13.2205H30.8006C29.7022 5.75102 23.253 0 15.4858 0C6.94711 0 0 6.94711 0 15.4858C0 23.4825 12.5126 36.9911 13.943 38.5045L15.4858 40.1399L17.0285 38.4996C18.3271 37.118 28.8185 25.7917 30.6835 17.7413H26.3043C24.8006 22.3499 19.6111 29.2384 15.4858 33.9007V33.9056ZM15.4858 11.2091C17.0138 11.2091 18.3515 12.0146 19.1082 13.2205H23.6973C22.7014 9.62246 19.4011 6.96664 15.4906 6.96664C10.7941 6.96664 6.9764 10.7893 6.9764 15.4809C6.9764 20.1725 10.799 23.9951 15.4906 23.9951C19.4011 23.9951 22.7063 21.3442 23.6973 17.7413H19.1082C18.3515 18.9471 17.0138 19.7526 15.4858 19.7526C13.1277 19.7526 11.2091 17.834 11.2091 15.476C11.2091 13.118 13.1277 11.1993 15.4858 11.1993V11.2091Z" fill="white"/>
<path d="M46.2525 28.389C44.5536 27.4028 43.2452 26.0358 42.3176 24.2978C41.3901 22.5598 40.9263 20.5826 40.9263 18.3711C40.9263 16.1595 41.3852 14.1823 42.3079 12.4443C43.2306 10.7063 44.5292 9.34422 46.2135 8.35317C47.8978 7.36212 49.8555 6.87392 52.0866 6.87392C53.8978 6.87392 55.5284 7.21566 56.9783 7.89914C58.4283 8.58262 59.6146 9.55414 60.5373 10.8137C61.46 12.0733 62.0459 13.533 62.3046 15.188H57.8766C57.6814 14.2604 57.3201 13.4646 56.7977 12.7958C56.2753 12.127 55.6163 11.6095 54.8205 11.2433C54.0296 10.8772 53.1362 10.6965 52.15 10.6965C50.8221 10.6965 49.6553 11.0334 48.6447 11.7071C47.6342 12.3808 46.8579 13.3035 46.3063 14.4703C45.7546 15.6371 45.4812 16.9406 45.4812 18.3808C45.4812 19.9138 45.7546 21.2563 46.3063 22.4085C46.8579 23.5607 47.6342 24.4492 48.635 25.079C49.6358 25.7087 50.8026 26.0212 52.1305 26.0212C53.1508 26.0212 54.0687 25.8259 54.884 25.4353C55.7041 25.0448 56.373 24.498 56.8905 23.7999C57.408 23.1017 57.7448 22.306 57.901 21.4223H62.3437C62.1582 23.0578 61.6211 24.5126 60.7326 25.7917C59.8441 27.0659 58.6626 28.0668 57.1883 28.7844C55.7188 29.5021 54.0394 29.8633 52.1549 29.8633C49.9141 29.8633 47.9417 29.3703 46.2428 28.3841L46.2525 28.389Z" fill="white"/>
<path d="M67.4649 28.76C66.1272 28.0179 65.0727 26.9732 64.3014 25.6209C63.53 24.2685 63.1443 22.7258 63.1443 20.9976C63.1443 19.2694 63.5202 17.7315 64.277 16.3841C65.0337 15.0367 66.0833 13.9821 67.4307 13.2205C68.7782 12.4589 70.2916 12.0781 71.9661 12.0781C73.6407 12.0781 75.1639 12.4541 76.5015 13.2108C77.8392 13.9675 78.8839 15.0171 79.6358 16.3646C80.3876 17.712 80.7635 19.2547 80.7635 20.9927C80.7635 22.7307 80.3827 24.2588 79.6211 25.6062C78.8595 26.9537 77.8099 28.0033 76.4674 28.7454C75.1248 29.4874 73.6211 29.8633 71.9515 29.8633C70.2818 29.8633 68.7977 29.4923 67.46 28.7502L67.4649 28.76ZM74.2607 25.6502C74.9442 25.2254 75.4861 24.6103 75.8815 23.8048C76.277 23.0041 76.4771 22.0668 76.4771 20.9976C76.4771 19.9284 76.2818 18.9911 75.8913 18.1904C75.5007 17.3898 74.9637 16.7698 74.2802 16.3304C73.5967 15.891 72.8205 15.6762 71.9564 15.6762C71.0923 15.6762 70.316 15.8959 69.6325 16.3304C68.9491 16.7698 68.412 17.3898 68.0215 18.2002C67.6309 19.0057 67.4356 19.948 67.4356 21.0171C67.4356 22.0863 67.6358 23.0041 68.0312 23.8048C68.4267 24.6005 68.9637 25.2157 69.6423 25.6502C70.3209 26.0847 71.0923 26.2995 71.9564 26.2995C72.8205 26.2995 73.5772 26.0847 74.2656 25.6599L74.2607 25.6502Z" fill="white"/>
<path d="M86.7391 12.4492V14.7633H86.8026C87.0711 14.2067 87.447 13.7283 87.9352 13.3182C88.4234 12.913 88.9946 12.6005 89.6488 12.3857C90.303 12.1709 91.0255 12.0635 91.8164 12.0635C93.0223 12.0635 94.0329 12.3076 94.8481 12.7958C95.6634 13.284 96.2737 13.9919 96.6789 14.9195H96.7228C97.2159 13.9919 97.9092 13.284 98.8075 12.7958C99.7058 12.3076 100.765 12.0635 102 12.0635C103.235 12.0635 104.241 12.3027 105.12 12.7812C105.999 13.2596 106.663 13.9724 107.126 14.9195C107.59 15.8666 107.82 17.0187 107.82 18.3759V29.5021H103.577V19.0838C103.577 18.0537 103.309 17.2482 102.767 16.6624C102.225 16.0765 101.473 15.7836 100.506 15.7836C99.8473 15.7836 99.2761 15.9349 98.7831 16.2327C98.2949 16.5305 97.9189 16.9553 97.6553 17.507C97.3917 18.0586 97.2599 18.6982 97.2599 19.4305V29.507H93.0613V19.0594C93.0613 18.0391 92.7977 17.2433 92.2656 16.6575C91.7334 16.0716 90.9962 15.7836 90.0491 15.7836C89.3901 15.7836 88.8091 15.9349 88.3063 16.2376C87.8034 16.5403 87.4128 16.9699 87.1394 17.5167C86.8661 18.0684 86.7294 18.703 86.7294 19.4207V29.4972H82.4869V12.4492H86.7391Z" fill="white"/>
<path d="M118.013 29.5509C117.305 29.3361 116.656 29.009 116.075 28.5794C115.494 28.1449 114.996 27.6127 114.586 26.9732H114.508V35.507H110.266V12.4492H114.508V14.9781H114.586C114.967 14.3727 115.44 13.8503 116.007 13.4207C116.573 12.9911 117.208 12.6591 117.911 12.4248C118.614 12.1904 119.38 12.0781 120.2 12.0781C121.68 12.0781 122.988 12.4541 124.111 13.2059C125.239 13.9577 126.108 15.0122 126.718 16.3694C127.328 17.7266 127.636 19.2742 127.636 21.0171C127.636 22.76 127.318 24.3857 126.689 25.7234C126.054 27.0611 125.175 28.0863 124.047 28.8039C122.92 29.5167 121.646 29.878 120.23 29.878C119.458 29.878 118.716 29.7706 118.008 29.5558L118.013 29.5509ZM121.192 25.5574C121.87 25.1327 122.402 24.5273 122.783 23.7462C123.164 22.965 123.354 22.0423 123.354 20.9829C123.354 19.9235 123.164 19.0155 122.783 18.2295C122.402 17.4435 121.875 16.8381 121.201 16.4183C120.528 15.9984 119.756 15.7836 118.892 15.7836C118.028 15.7836 117.227 16.0033 116.554 16.4378C115.88 16.8723 115.362 17.4923 114.996 18.2832C114.63 19.0741 114.449 19.9821 114.449 20.9976C114.449 22.0131 114.635 22.965 115.006 23.7511C115.377 24.5371 115.895 25.1424 116.563 25.5623C117.232 25.9821 118.004 26.1969 118.877 26.1969C119.751 26.1969 120.513 25.9821 121.192 25.5574Z" fill="white"/>
<path d="M132.381 28.7991C131.258 28.0863 130.379 27.0562 129.745 25.7185C129.105 24.3808 128.788 22.8137 128.788 21.0122C128.788 19.2108 129.095 17.7266 129.706 16.3646C130.316 15.0074 131.185 13.9528 132.313 13.201C133.44 12.4492 134.739 12.0733 136.209 12.0733C137.034 12.0733 137.795 12.1904 138.498 12.4199C139.201 12.6493 139.836 12.9813 140.397 13.4061C140.959 13.8308 141.427 14.3434 141.808 14.9439H141.916V12.4443H146.158V29.4972H141.916V27.0122H141.808C141.408 27.6274 140.915 28.1497 140.334 28.5794C139.753 29.009 139.109 29.3263 138.406 29.546C137.702 29.7608 136.96 29.8682 136.189 29.8682C134.768 29.8682 133.499 29.5118 132.376 28.7942L132.381 28.7991ZM139.87 25.5672C140.539 25.1473 141.056 24.5419 141.427 23.7559C141.799 22.9699 141.984 22.0521 141.984 21.0025C141.984 19.9528 141.803 19.079 141.437 18.2881C141.071 17.4972 140.554 16.8821 139.885 16.4427C139.216 16.0033 138.435 15.7885 137.537 15.7885C136.638 15.7885 135.901 16.0033 135.227 16.428C134.554 16.8528 134.026 17.4581 133.655 18.2393C133.279 19.0204 133.094 19.9382 133.094 20.9878C133.094 22.0375 133.284 22.9699 133.665 23.7559C134.046 24.5419 134.573 25.1473 135.247 25.5672C135.921 25.987 136.692 26.2018 137.556 26.2018C138.42 26.2018 139.201 25.9919 139.87 25.5672Z" fill="white"/>
<path d="M149.839 28.345C148.545 27.3149 147.852 25.8601 147.75 23.9756H151.855C151.904 24.8397 152.222 25.5232 152.803 26.0212C153.384 26.5192 154.209 26.7681 155.278 26.7681C156.235 26.7681 156.967 26.5875 157.47 26.2262C157.973 25.865 158.227 25.4158 158.227 24.869C158.227 24.415 158.109 24.0537 157.88 23.7803C157.65 23.5069 157.27 23.2775 156.747 23.092C156.225 22.9065 155.473 22.7161 154.492 22.5208C152.988 22.2327 151.807 21.8959 150.943 21.5102C150.078 21.1245 149.439 20.6168 149.019 19.9821C148.604 19.3475 148.394 18.5371 148.394 17.5509C148.394 16.472 148.658 15.52 149.18 14.6949C149.702 13.8698 150.493 13.2303 151.543 12.7665C152.593 12.3027 153.847 12.0733 155.307 12.0733C156.767 12.0733 157.968 12.2832 159.003 12.7079C160.038 13.1278 160.838 13.7527 161.405 14.5777C161.971 15.4028 162.288 16.389 162.362 17.5411H158.334C158.261 16.8088 157.978 16.2376 157.48 15.8227C156.982 15.4077 156.259 15.1978 155.312 15.1978C154.746 15.1978 154.253 15.271 153.838 15.4126C153.423 15.559 153.1 15.769 152.881 16.0472C152.661 16.3255 152.549 16.6575 152.549 17.048C152.549 17.4581 152.656 17.7852 152.866 18.0293C153.076 18.2734 153.437 18.4736 153.945 18.6396C154.453 18.8056 155.185 18.9813 156.142 19.162C157.704 19.4598 158.934 19.8015 159.823 20.1872C160.711 20.5729 161.38 21.0855 161.82 21.725C162.264 22.3646 162.484 23.1896 162.484 24.21C162.484 25.3719 162.21 26.3727 161.663 27.2124C161.117 28.0521 160.301 28.7063 159.218 29.1799C158.134 29.6534 156.806 29.8877 155.244 29.8877C152.93 29.8877 151.123 29.3751 149.834 28.345H149.839Z" fill="white"/>
<path d="M165.476 28.345C164.183 27.3149 163.489 25.8601 163.387 23.9756H167.493C167.541 24.8397 167.859 25.5232 168.44 26.0212C169.021 26.5192 169.846 26.7681 170.915 26.7681C171.872 26.7681 172.604 26.5875 173.107 26.2262C173.61 25.865 173.864 25.4158 173.864 24.869C173.864 24.415 173.746 24.0537 173.517 23.7803C173.288 23.5069 172.907 23.2775 172.384 23.092C171.862 22.9065 171.11 22.7161 170.129 22.5208C168.625 22.2327 167.444 21.8959 166.58 21.5102C165.716 21.1245 165.076 20.6168 164.656 19.9821C164.241 19.3475 164.031 18.5371 164.031 17.5509C164.031 16.472 164.295 15.52 164.817 14.6949C165.34 13.8698 166.13 13.2303 167.18 12.7665C168.23 12.3027 169.484 12.0733 170.944 12.0733C172.404 12.0733 173.605 12.2832 174.64 12.7079C175.675 13.1278 176.475 13.7527 177.042 14.5777C177.608 15.4028 177.925 16.389 177.999 17.5411H173.971C173.898 16.8088 173.615 16.2376 173.117 15.8227C172.619 15.4077 171.896 15.1978 170.949 15.1978C170.383 15.1978 169.89 15.271 169.475 15.4126C169.06 15.559 168.737 15.769 168.518 16.0472C168.298 16.3255 168.186 16.6575 168.186 17.048C168.186 17.4581 168.293 17.7852 168.503 18.0293C168.713 18.2734 169.074 18.4736 169.582 18.6396C170.09 18.8056 170.822 18.9813 171.779 19.162C173.341 19.4598 174.571 19.8015 175.46 20.1872C176.349 20.5729 177.017 21.0855 177.457 21.725C177.901 22.3646 178.121 23.1896 178.121 24.21C178.121 25.3719 177.847 26.3727 177.301 27.2124C176.754 28.0521 175.938 28.7063 174.855 29.1799C173.771 29.6534 172.443 29.8877 170.881 29.8877C168.567 29.8877 166.76 29.3751 165.471 28.345H165.476Z" fill="white"/>
</svg>
