<svg width="1148" height="1148" viewBox="0 0 1148 1148" fill="none" xmlns="http://www.w3.org/2000/svg">
<mask id="mask0_102_68" style="mask-type:alpha" maskUnits="userSpaceOnUse" x="0" y="0" width="1148" height="1148">
<circle cx="574" cy="574" r="574" fill="#D9D9D9"/>
</mask>
<g mask="url(#mask0_102_68)">
<circle cx="574" cy="574" r="566.5" fill="#FFE5ED" stroke="black" stroke-width="15"/>
<path d="M981.119 769.349C981.119 853.471 936.262 930.167 862.677 986.078C789.087 1041.99 687.091 1076.8 574.12 1076.8C461.148 1076.8 359.152 1041.99 285.562 986.078C211.977 930.167 167.12 853.471 167.12 769.349C167.12 685.227 211.977 608.531 285.562 552.619C359.152 496.704 461.148 461.902 574.12 461.902C687.091 461.902 789.087 496.704 862.677 552.619C936.262 608.531 981.119 685.227 981.119 769.349Z" fill="white" stroke="white" stroke-width="15"/>
<path d="M572.309 1084.3C682.721 1084.3 788.611 1051.11 866.685 992.05C944.758 932.986 988.619 852.878 988.619 769.349C988.619 685.82 944.758 605.712 866.685 546.648C788.611 487.584 682.721 454.402 572.309 454.402V769.349L572.309 1084.3Z" fill="#E8947F"/>
<rect x="268.38" y="695.137" width="70.6828" height="26.9205" rx="13.4602" transform="rotate(20 268.38 695.137)" fill="#42241F"/>
<rect x="251.932" y="759.722" width="70.6828" height="26.9205" rx="13.4602" transform="rotate(-0.999999 251.932 759.722)" fill="#42241F"/>
<rect width="70.6828" height="26.9205" rx="13.4602" transform="matrix(-0.939693 0.34202 0.34202 0.939693 870.415 696.947)" fill="#42241F"/>
<rect x="258.767" y="828.934" width="70.6828" height="26.9205" rx="13.4602" transform="rotate(-18.5 258.767 828.934)" fill="#42241F"/>
<rect width="70.6828" height="26.9205" rx="13.4602" transform="matrix(-0.948324 -0.317305 -0.317305 0.948324 879.567 827.978)" fill="#42241F"/>
<rect width="70.6828" height="26.9205" rx="13.4602" transform="matrix(-0.999848 -0.0174524 -0.0174524 0.999848 885.997 761.532)" fill="#42241F"/>
<circle cx="430.221" cy="697.852" r="20.8155" fill="#42241F"/>
<circle cx="705.347" cy="697.852" r="20.8155" fill="#42241F"/>
<path d="M544.055 734.488C541.641 730.453 544.596 725.337 549.296 725.409L601.34 726.212C605.918 726.283 608.733 731.247 606.444 735.212L581.118 779.078C578.829 783.043 573.122 783.087 570.772 779.158L544.055 734.488Z" fill="#42241F"/>
<path d="M452.847 848.078C487.841 882.986 561.449 922.627 575.93 801.93" stroke="#42241F" stroke-width="12"/>
<circle cx="451.037" cy="847.181" r="10.8602" fill="#42241F"/>
<circle cx="575.93" cy="800.12" r="10.8602" fill="black"/>
<path d="M699.012 848.078C664.018 882.986 590.41 922.627 575.929 801.93" stroke="#42241F" stroke-width="12"/>
<circle cx="10.8602" cy="10.8602" r="10.8602" transform="matrix(-1 0 0 1 711.683 836.32)" fill="#42241F"/>
<circle cx="10.8602" cy="10.8602" r="10.8602" transform="matrix(-1 0 0 1 586.79 789.259)" fill="#42241F"/>
<path d="M506.972 467.616C506.972 515.6 491.979 554.498 473.486 554.498C454.992 554.498 440 515.6 440 467.616C473.486 449.516 454.992 458.566 473.486 458.566C491.979 458.566 483.441 449.516 506.972 467.616Z" fill="#B36652"/>
<path d="M604.714 467.616C604.714 536.592 588.101 592.508 567.608 592.508C547.115 592.508 530.502 536.592 530.502 467.616C555.843 422.365 567.608 476.666 567.608 454.946C588.101 454.946 582.993 442.276 604.714 467.616Z" fill="#B36652"/>
<path d="M695.216 467.616C695.216 515.6 680.224 554.498 661.73 554.498C643.236 554.498 628.244 515.6 628.244 467.616C661.73 467.616 643.236 467.617 661.73 467.617C680.224 467.617 671.685 467.616 695.216 467.616Z" fill="#B36652"/>
<path d="M981.119 769.349C981.119 853.471 936.262 930.167 862.677 986.078C789.087 1041.99 687.091 1076.8 574.12 1076.8C461.148 1076.8 359.152 1041.99 285.562 986.078C211.977 930.167 167.12 853.471 167.12 769.349C167.12 685.227 211.977 608.531 285.562 552.619C359.152 496.704 461.148 461.902 574.12 461.902C687.091 461.902 789.087 496.704 862.677 552.619C936.262 608.531 981.119 685.227 981.119 769.349Z" stroke="#42241F" stroke-width="15"/>
<path d="M739.532 467.783C836.158 368.524 870.135 460.513 874.814 530.618C875.447 540.108 866.273 546.899 857.756 542.666C853.048 540.326 848.797 537.784 844.862 535.197C832.618 527.149 729.311 478.282 739.532 467.783Z" fill="white" stroke="#B36652" stroke-width="10"/>
<path d="M868.541 576.469C888.69 482.475 867.777 321.948 712 481.307" stroke="#42241F" stroke-width="12"/>
<mask id="path-26-outside-1_102_68" maskUnits="userSpaceOnUse" x="206.046" y="-15.9623" width="604.267" height="500.807" fill="black">
<rect fill="white" x="206.046" y="-15.9623" width="604.267" height="500.807"/>
<path fill-rule="evenodd" clip-rule="evenodd" d="M600.447 66.8672C576.847 34.8128 537.281 15.0525 493.846 17.915C450.41 20.7774 413.78 45.5591 394.591 80.4332C379.542 75.3158 363.184 73.011 346.234 74.128C279.306 78.5386 228.511 134.634 232.781 199.421C236.696 258.832 285.556 304.921 345.25 308.76L355.312 461.443L689.387 439.427L679.325 286.744C737.998 275.105 780.388 223.002 776.473 163.592C772.203 98.8046 714.486 49.8599 647.558 54.2706C630.609 55.3875 614.694 59.8191 600.447 66.8672Z"/>
</mask>
<path fill-rule="evenodd" clip-rule="evenodd" d="M600.447 66.8672C576.847 34.8128 537.281 15.0525 493.846 17.915C450.41 20.7774 413.78 45.5591 394.591 80.4332C379.542 75.3158 363.184 73.011 346.234 74.128C279.306 78.5386 228.511 134.634 232.781 199.421C236.696 258.832 285.556 304.921 345.25 308.76L355.312 461.443L689.387 439.427L679.325 286.744C737.998 275.105 780.388 223.002 776.473 163.592C772.203 98.8046 714.486 49.8599 647.558 54.2706C630.609 55.3875 614.694 59.8191 600.447 66.8672Z" fill="white"/>
<path d="M600.447 66.8672L588.367 75.7604L595.824 85.8888L607.098 80.312L600.447 66.8672ZM394.591 80.4332L389.762 94.6346L401.67 98.6837L407.733 87.6643L394.591 80.4332ZM345.25 308.76L360.217 307.773L359.351 294.636L346.212 293.791L345.25 308.76ZM355.312 461.443L340.344 462.43L341.33 477.397L356.298 476.411L355.312 461.443ZM689.387 439.427L690.374 454.395L705.341 453.409L704.355 438.441L689.387 439.427ZM679.325 286.744L676.406 272.031L663.492 274.592L664.358 287.73L679.325 286.744ZM612.526 57.9739C585.95 21.8772 541.498 -0.25787 492.859 2.94743L494.832 32.8825C533.065 30.3629 567.744 47.7484 588.367 75.7604L612.526 57.9739ZM492.859 2.94743C444.221 6.15273 403.058 33.93 381.449 73.202L407.733 87.6643C424.502 57.1881 456.6 35.4021 494.832 32.8825L492.859 2.94743ZM399.42 66.2318C382.527 60.4873 364.193 57.9119 345.248 59.1604L347.221 89.0955C362.174 88.1101 376.557 90.1444 389.762 94.6346L399.42 66.2318ZM345.248 59.1604C270.516 64.0854 212.969 126.899 217.813 200.408L247.748 198.435C244.054 142.369 288.096 92.9919 347.221 89.0955L345.248 59.1604ZM217.813 200.408C222.255 267.803 277.555 319.437 344.287 323.729L346.212 293.791C293.558 290.404 251.137 249.861 247.748 198.435L217.813 200.408ZM330.282 309.746L340.344 462.43L370.279 460.457L360.217 307.773L330.282 309.746ZM356.298 476.411L690.374 454.395L688.401 424.46L354.325 446.476L356.298 476.411ZM704.355 438.441L694.293 285.757L664.358 287.73L674.42 440.414L704.355 438.441ZM761.505 164.578C764.894 216.004 728.161 261.764 676.406 272.031L682.244 301.457C747.835 288.445 795.882 230.001 791.44 162.605L761.505 164.578ZM648.544 69.2381C707.668 65.3417 757.81 108.512 761.505 164.578L791.44 162.605C786.596 89.0969 721.303 34.3781 646.571 39.303L648.544 69.2381ZM607.098 80.312C619.599 74.1278 633.591 70.2235 648.544 69.2381L646.571 39.303C627.626 40.5515 609.789 45.5105 593.796 53.4223L607.098 80.312Z" fill="black" mask="url(#path-26-outside-1_102_68)"/>
<path d="M353.661 436.403L346.178 436.897L346.671 444.38L348.734 475.685C349.388 485.615 358.094 492.821 367.822 492.179L681.018 471.54C690.747 470.898 698.431 462.613 697.777 452.682L695.714 421.378L695.221 413.894L687.737 414.388L353.661 436.403Z" fill="#A2E3F6" stroke="black" stroke-width="15"/>
<path d="M426.064 146.542C413.396 147.376 403.695 158.263 404.533 170.976L409.231 242.257C410.069 254.97 421.114 264.489 433.782 263.654C446.45 262.819 456.151 251.933 455.313 239.22L450.616 167.939C449.778 155.226 438.732 145.707 426.064 146.542Z" fill="white" stroke="black" stroke-width="15"/>
<path d="M502.188 144.496C489.435 145.337 478.977 155.916 479.838 168.985L484.535 240.266C485.396 253.334 497.153 262.449 509.905 261.609C522.658 260.769 533.117 250.189 532.255 237.121L527.558 165.84C526.697 152.771 514.94 143.656 502.188 144.496Z" fill="white" stroke="black" stroke-width="15"/>
<path d="M573.064 142.542C560.396 143.376 550.695 154.263 551.533 166.976L556.231 238.257C557.069 250.97 568.114 260.489 580.782 259.654C593.45 258.819 603.151 247.933 602.313 235.22L597.616 163.939C596.778 151.226 585.732 141.707 573.064 142.542Z" fill="white" stroke="black" stroke-width="15"/>
<path d="M404.273 485.38C313.484 380.755 274.3 470.649 265.618 540.372C264.442 549.81 273.213 557.115 281.958 553.376C286.792 551.309 291.182 549.015 295.259 546.657C307.942 539.323 413.876 496.446 404.273 485.38Z" fill="#E4BFB5" stroke="#B36652" stroke-width="12"/>
<path d="M262.295 582.856C247.557 487.863 277.621 328.795 424.025 496.806" stroke="#42241F" stroke-width="12"/>
</g>
</svg>
